<svg width="74" height="12" viewBox="0 0 74 12" fill="none" xmlns="http://www.w3.org/2000/svg">
<path d="M0.227422 11V0.92H1.69042V9.621H6.25442V11H0.227422ZM10.7959 11.21C10.0446 11.21 9.38422 11.0467 8.81489 10.72C8.25022 10.3887 7.80922 9.929 7.49189 9.341C7.17922 8.74833 7.02289 8.06233 7.02289 7.283C7.02289 6.457 7.17689 5.74067 7.48489 5.134C7.79756 4.52733 8.23156 4.05833 8.78689 3.727C9.34222 3.39567 9.98856 3.23 10.7259 3.23C11.4959 3.23 12.1516 3.40967 12.6929 3.769C13.2342 4.12367 13.6379 4.63 13.9039 5.288C14.1746 5.946 14.2819 6.72767 14.2259 7.633H12.7629V7.101C12.7536 6.22367 12.5856 5.575 12.2589 5.155C11.9369 4.735 11.4446 4.525 10.7819 4.525C10.0492 4.525 9.49856 4.756 9.12989 5.218C8.76122 5.68 8.57689 6.34733 8.57689 7.22C8.57689 8.05067 8.76122 8.69467 9.12989 9.152C9.49856 9.60467 10.0306 9.831 10.7259 9.831C11.1832 9.831 11.5776 9.72833 11.9089 9.523C12.2449 9.313 12.5062 9.01433 12.6929 8.627L14.1279 9.082C13.8339 9.75867 13.3882 10.2837 12.7909 10.657C12.1936 11.0257 11.5286 11.21 10.7959 11.21ZM8.10089 7.633V6.492H13.4979V7.633H8.10089ZM17.7947 11.21C17.2347 11.21 16.7657 11.1073 16.3877 10.902C16.0097 10.692 15.7227 10.4167 15.5267 10.076C15.3354 9.73067 15.2397 9.35267 15.2397 8.942C15.2397 8.55933 15.3074 8.22333 15.4427 7.934C15.578 7.64467 15.7787 7.39967 16.0447 7.199C16.3107 6.99367 16.6374 6.828 17.0247 6.702C17.3607 6.604 17.741 6.51767 18.1657 6.443C18.5904 6.36833 19.036 6.29833 19.5027 6.233C19.974 6.16767 20.4407 6.10233 20.9027 6.037L20.3707 6.331C20.38 5.73833 20.254 5.29967 19.9927 5.015C19.736 4.72567 19.2927 4.581 18.6627 4.581C18.266 4.581 17.902 4.67433 17.5707 4.861C17.2394 5.043 17.0084 5.34633 16.8777 5.771L15.5127 5.351C15.6994 4.70233 16.054 4.18667 16.5767 3.804C17.104 3.42133 17.804 3.23 18.6767 3.23C19.3534 3.23 19.9414 3.34667 20.4407 3.58C20.9447 3.80867 21.3134 4.17267 21.5467 4.672C21.668 4.91933 21.7427 5.18067 21.7707 5.456C21.7987 5.73133 21.8127 6.02767 21.8127 6.345V11H20.5177V9.271L20.7697 9.495C20.457 10.0737 20.058 10.5053 19.5727 10.79C19.092 11.07 18.4994 11.21 17.7947 11.21ZM18.0537 10.013C18.469 10.013 18.826 9.94067 19.1247 9.796C19.4234 9.64667 19.6637 9.45767 19.8457 9.229C20.0277 9.00033 20.1467 8.76233 20.2027 8.515C20.282 8.291 20.3264 8.039 20.3357 7.759C20.3497 7.479 20.3567 7.255 20.3567 7.087L20.8327 7.262C20.3707 7.332 19.9507 7.395 19.5727 7.451C19.1947 7.507 18.8517 7.563 18.5437 7.619C18.2404 7.67033 17.9697 7.73333 17.7317 7.808C17.531 7.878 17.3514 7.962 17.1927 8.06C17.0387 8.158 16.915 8.277 16.8217 8.417C16.733 8.557 16.6887 8.72733 16.6887 8.928C16.6887 9.124 16.7377 9.306 16.8357 9.474C16.9337 9.63733 17.083 9.768 17.2837 9.866C17.4844 9.964 17.741 10.013 18.0537 10.013ZM23.6304 11V3.44H24.9324V5.274L24.7504 5.036C24.8437 4.79333 24.9651 4.57167 25.1144 4.371C25.2637 4.16567 25.4364 3.99767 25.6324 3.867C25.8237 3.727 26.0361 3.61967 26.2694 3.545C26.5074 3.46567 26.7501 3.419 26.9974 3.405C27.2447 3.38633 27.4827 3.398 27.7114 3.44V4.812C27.4641 4.74667 27.1887 4.728 26.8854 4.756C26.5867 4.784 26.3114 4.87967 26.0594 5.043C25.8214 5.197 25.6324 5.38367 25.4924 5.603C25.3571 5.82233 25.2591 6.06733 25.1984 6.338C25.1377 6.604 25.1074 6.88633 25.1074 7.185V11H23.6304ZM34.3505 11V7.283C34.3505 6.989 34.3248 6.688 34.2735 6.38C34.2268 6.06733 34.1335 5.778 33.9935 5.512C33.8581 5.246 33.6645 5.03133 33.4125 4.868C33.1651 4.70467 32.8408 4.623 32.4395 4.623C32.1781 4.623 31.9308 4.66733 31.6975 4.756C31.4641 4.84 31.2588 4.97767 31.0815 5.169C30.9088 5.36033 30.7711 5.61233 30.6685 5.925C30.5705 6.23767 30.5215 6.618 30.5215 7.066L29.6115 6.723C29.6115 6.037 29.7398 5.43267 29.9965 4.91C30.2531 4.38267 30.6218 3.972 31.1025 3.678C31.5831 3.384 32.1641 3.237 32.8455 3.237C33.3681 3.237 33.8068 3.321 34.1615 3.489C34.5161 3.657 34.8031 3.87867 35.0225 4.154C35.2465 4.42467 35.4168 4.721 35.5335 5.043C35.6501 5.365 35.7295 5.68 35.7715 5.988C35.8135 6.296 35.8345 6.56667 35.8345 6.8V11H34.3505ZM29.0375 11V3.44H30.3465V5.624H30.5215V11H29.0375ZM49.5185 11L49.5255 6.289C49.5255 5.743 49.3855 5.31833 49.1055 5.015C48.8255 4.707 48.4568 4.553 47.9995 4.553C47.7195 4.553 47.4628 4.61833 47.2295 4.749C47.0008 4.875 46.8141 5.06633 46.6695 5.323C46.5295 5.575 46.4595 5.89233 46.4595 6.275L45.7525 5.918C45.7431 5.386 45.8551 4.91933 46.0885 4.518C46.3265 4.11667 46.6485 3.80633 47.0545 3.587C47.4605 3.363 47.9155 3.251 48.4195 3.251C49.2361 3.251 49.8685 3.496 50.3165 3.986C50.7645 4.476 50.9885 5.127 50.9885 5.939L50.9815 11H49.5185ZM40.4535 11V3.44H41.7555V5.624H41.9235V11H40.4535ZM44.9895 11L44.9965 6.317C44.9965 5.76633 44.8565 5.33467 44.5765 5.022C44.3011 4.70933 43.9301 4.553 43.4635 4.553C43.0015 4.553 42.6281 4.71167 42.3435 5.029C42.0635 5.34633 41.9235 5.76167 41.9235 6.275L41.2235 5.827C41.2235 5.33233 41.3425 4.89133 41.5805 4.504C41.8185 4.11667 42.1405 3.811 42.5465 3.587C42.9525 3.363 43.4121 3.251 43.9255 3.251C44.4621 3.251 44.9195 3.36533 45.2975 3.594C45.6755 3.818 45.9625 4.133 46.1585 4.539C46.3591 4.945 46.4595 5.41633 46.4595 5.953L46.4525 11H44.9895ZM55.9935 11.21C55.2375 11.21 54.5818 11.0397 54.0265 10.699C53.4711 10.3583 53.0418 9.88933 52.7385 9.292C52.4398 8.69 52.2905 7.997 52.2905 7.213C52.2905 6.42433 52.4445 5.73133 52.7525 5.134C53.0605 4.532 53.4921 4.06533 54.0475 3.734C54.6028 3.398 55.2515 3.23 55.9935 3.23C56.7495 3.23 57.4051 3.40033 57.9605 3.741C58.5158 4.08167 58.9451 4.55067 59.2485 5.148C59.5518 5.74533 59.7035 6.43367 59.7035 7.213C59.7035 8.00167 59.5495 8.697 59.2415 9.299C58.9381 9.89633 58.5088 10.3653 57.9535 10.706C57.3981 11.042 56.7448 11.21 55.9935 11.21ZM55.9935 9.831C56.7168 9.831 57.2558 9.58833 57.6105 9.103C57.9698 8.613 58.1495 7.983 58.1495 7.213C58.1495 6.42433 57.9675 5.79433 57.6035 5.323C57.2441 4.847 56.7075 4.609 55.9935 4.609C55.5035 4.609 55.0998 4.721 54.7825 4.945C54.4651 5.16433 54.2295 5.47 54.0755 5.862C53.9215 6.24933 53.8445 6.69967 53.8445 7.213C53.8445 8.00633 54.0265 8.641 54.3905 9.117C54.7545 9.593 55.2888 9.831 55.9935 9.831ZM61.2417 11V3.44H62.5437V5.274L62.3617 5.036C62.4551 4.79333 62.5764 4.57167 62.7257 4.371C62.8751 4.16567 63.0477 3.99767 63.2437 3.867C63.4351 3.727 63.6474 3.61967 63.8807 3.545C64.1187 3.46567 64.3614 3.419 64.6087 3.405C64.8561 3.38633 65.0941 3.398 65.3227 3.44V4.812C65.0754 4.74667 64.8001 4.728 64.4967 4.756C64.1981 4.784 63.9227 4.87967 63.6707 5.043C63.4327 5.197 63.2437 5.38367 63.1037 5.603C62.9684 5.82233 62.8704 6.06733 62.8097 6.338C62.7491 6.604 62.7187 6.88633 62.7187 7.185V11H61.2417ZM69.8721 11.21C69.1207 11.21 68.4604 11.0467 67.8911 10.72C67.3264 10.3887 66.8854 9.929 66.5681 9.341C66.2554 8.74833 66.0991 8.06233 66.0991 7.283C66.0991 6.457 66.2531 5.74067 66.5611 5.134C66.8737 4.52733 67.3077 4.05833 67.8631 3.727C68.4184 3.39567 69.0647 3.23 69.8021 3.23C70.5721 3.23 71.2277 3.40967 71.7691 3.769C72.3104 4.12367 72.7141 4.63 72.9801 5.288C73.2507 5.946 73.3581 6.72767 73.3021 7.633H71.8391V7.101C71.8297 6.22367 71.6617 5.575 71.3351 5.155C71.0131 4.735 70.5207 4.525 69.8581 4.525C69.1254 4.525 68.5747 4.756 68.2061 5.218C67.8374 5.68 67.6531 6.34733 67.6531 7.22C67.6531 8.05067 67.8374 8.69467 68.2061 9.152C68.5747 9.60467 69.1067 9.831 69.8021 9.831C70.2594 9.831 70.6537 9.72833 70.9851 9.523C71.3211 9.313 71.5824 9.01433 71.7691 8.627L73.2041 9.082C72.9101 9.75867 72.4644 10.2837 71.8671 10.657C71.2697 11.0257 70.6047 11.21 69.8721 11.21ZM67.1771 7.633V6.492H72.5741V7.633H67.1771Z" fill="white"/>
</svg>
