<svg width="25" height="23" viewBox="0 0 25 23" fill="none" xmlns="http://www.w3.org/2000/svg">
<path d="M10.6972 10.0159H14.1656C14.1154 6.96536 11.6082 4.85926 7.79712 4.85926C4.04458 4.85926 1.29494 6.93193 1.31166 10.0409C1.3033 12.5649 3.08346 14.0108 5.97518 14.7045L7.83891 15.1725C9.70265 15.6238 10.739 16.1587 10.7473 17.312C10.739 18.5656 9.55221 19.4181 7.71355 19.4181C5.8331 19.4181 4.47917 18.5489 4.36217 16.8356H0.860352C0.952285 20.538 3.60163 22.4519 7.75534 22.4519C11.9341 22.4519 14.3912 20.4545 14.3996 17.3204C14.3912 14.4704 12.2433 12.9577 9.26805 12.2891L7.73026 11.9214C6.24262 11.5787 4.99734 11.0271 5.02242 9.79857C5.02242 8.69538 6.00025 7.88469 7.77205 7.88469C9.50207 7.88469 10.5635 8.6703 10.6972 10.0159Z" fill="white"/>
<path d="M19.5507 10.3026H16.3182V22.2095H19.5507V10.3026Z" fill="white"/>
<path d="M18.3458 0.907227H17.1627L15.6888 1.84037V2.95664L17.0522 2.10199H17.0871V6.86071H18.3458V0.907227Z" fill="white"/>
<path d="M19.6707 5.8142H22.5282V6.86071H23.7317V5.8142H24.4701V4.80548H23.7317V0.907227H22.1561L19.6707 4.82292V5.8142ZM22.5515 4.80548H20.9381V4.75897L22.505 2.27932H22.5515V4.80548Z" fill="white"/>
</svg>
